<mxfile host="app.diagrams.net" modified="2021-05-24T06:39:27.238Z" agent="5.0 (Windows NT 10.0; Win64; x64) AppleWebKit/537.36 (KHTML, like Gecko) Chrome/86.0.4240.111 Safari/537.36" etag="Saxi71ZPOVfNk_2uBAur" version="14.7.0" type="github">
  <diagram id="ZI17y7Sj4KQ2eN89Hq-3" name="Page-1">
    <mxGraphModel dx="868" dy="421" grid="1" gridSize="10" guides="1" tooltips="1" connect="1" arrows="1" fold="1" page="1" pageScale="1" pageWidth="827" pageHeight="1169" math="0" shadow="0">
      <root>
        <mxCell id="0" />
        <mxCell id="1" parent="0" />
        <mxCell id="YBX8F5F2p3ZKTV1kXa1D-8" style="edgeStyle=orthogonalEdgeStyle;rounded=0;orthogonalLoop=1;jettySize=auto;html=1;" edge="1" parent="1" source="YBX8F5F2p3ZKTV1kXa1D-6" target="YBX8F5F2p3ZKTV1kXa1D-7">
          <mxGeometry relative="1" as="geometry" />
        </mxCell>
        <mxCell id="YBX8F5F2p3ZKTV1kXa1D-6" value="" style="points=[[0.145,0.145,0],[0.5,0,0],[0.855,0.145,0],[1,0.5,0],[0.855,0.855,0],[0.5,1,0],[0.145,0.855,0],[0,0.5,0]];shape=mxgraph.bpmn.event;html=1;verticalLabelPosition=bottom;labelBackgroundColor=#ffffff;verticalAlign=top;align=center;perimeter=ellipsePerimeter;outlineConnect=0;aspect=fixed;outline=standard;symbol=general;" vertex="1" parent="1">
          <mxGeometry x="50" y="150" width="50" height="50" as="geometry" />
        </mxCell>
        <mxCell id="YBX8F5F2p3ZKTV1kXa1D-10" value="" style="edgeStyle=orthogonalEdgeStyle;rounded=0;orthogonalLoop=1;jettySize=auto;html=1;" edge="1" parent="1" source="YBX8F5F2p3ZKTV1kXa1D-7" target="YBX8F5F2p3ZKTV1kXa1D-9">
          <mxGeometry relative="1" as="geometry" />
        </mxCell>
        <mxCell id="YBX8F5F2p3ZKTV1kXa1D-7" value="" style="points=[[0.25,0,0],[0.5,0,0],[0.75,0,0],[1,0.25,0],[1,0.5,0],[1,0.75,0],[0.75,1,0],[0.5,1,0],[0.25,1,0],[0,0.75,0],[0,0.5,0],[0,0.25,0]];shape=mxgraph.bpmn.task;rectStyle=rounded;size=10;taskMarker=user;" vertex="1" parent="1">
          <mxGeometry x="170" y="135" width="120" height="80" as="geometry" />
        </mxCell>
        <mxCell id="YBX8F5F2p3ZKTV1kXa1D-12" value="" style="edgeStyle=orthogonalEdgeStyle;rounded=0;orthogonalLoop=1;jettySize=auto;html=1;" edge="1" parent="1" source="YBX8F5F2p3ZKTV1kXa1D-9" target="YBX8F5F2p3ZKTV1kXa1D-11">
          <mxGeometry relative="1" as="geometry" />
        </mxCell>
        <mxCell id="YBX8F5F2p3ZKTV1kXa1D-9" value="" style="points=[[0.25,0,0],[0.5,0,0],[0.75,0,0],[1,0.25,0],[1,0.5,0],[1,0.75,0],[0.75,1,0],[0.5,1,0],[0.25,1,0],[0,0.75,0],[0,0.5,0],[0,0.25,0]];shape=mxgraph.bpmn.task;rectStyle=rounded;size=10;taskMarker=user;" vertex="1" parent="1">
          <mxGeometry x="370" y="135" width="120" height="80" as="geometry" />
        </mxCell>
        <mxCell id="YBX8F5F2p3ZKTV1kXa1D-14" style="edgeStyle=orthogonalEdgeStyle;rounded=0;orthogonalLoop=1;jettySize=auto;html=1;" edge="1" parent="1" source="YBX8F5F2p3ZKTV1kXa1D-11" target="YBX8F5F2p3ZKTV1kXa1D-13">
          <mxGeometry relative="1" as="geometry" />
        </mxCell>
        <mxCell id="YBX8F5F2p3ZKTV1kXa1D-11" value="" style="points=[[0.25,0,0],[0.5,0,0],[0.75,0,0],[1,0.25,0],[1,0.5,0],[1,0.75,0],[0.75,1,0],[0.5,1,0],[0.25,1,0],[0,0.75,0],[0,0.5,0],[0,0.25,0]];shape=mxgraph.bpmn.task;rectStyle=rounded;size=10;taskMarker=user;" vertex="1" parent="1">
          <mxGeometry x="570" y="135" width="120" height="80" as="geometry" />
        </mxCell>
        <mxCell id="YBX8F5F2p3ZKTV1kXa1D-13" value="" style="points=[[0.145,0.145,0],[0.5,0,0],[0.855,0.145,0],[1,0.5,0],[0.855,0.855,0],[0.5,1,0],[0.145,0.855,0],[0,0.5,0]];shape=mxgraph.bpmn.event;html=1;verticalLabelPosition=bottom;labelBackgroundColor=#ffffff;verticalAlign=top;align=center;perimeter=ellipsePerimeter;outlineConnect=0;aspect=fixed;outline=end;symbol=terminate;" vertex="1" parent="1">
          <mxGeometry x="750" y="150" width="50" height="50" as="geometry" />
        </mxCell>
      </root>
    </mxGraphModel>
  </diagram>
</mxfile>
